<svg width="56" height="56" viewBox="0 0 56 56" fill="none" xmlns="http://www.w3.org/2000/svg">
<g clip-path="url(#clip0_0_81)">
<path d="M37.5667 37.0417H18.6083V49.9917H37.5667V37.0417Z" fill="#A6C44A"/>
<path d="M42.5833 11.6667C42.35 11.6667 42.0583 11.6667 41.825 11.725C40.0167 5.89167 34.1833 1.63333 27.2417 1.63333C21.1167 1.63333 15.8083 4.95833 13.4167 9.8C6.76668 10.5 1.57501 15.6917 1.57501 22.05C1.57501 28.875 7.64168 34.475 15.05 34.475C19.4833 34.475 23.45 32.4917 25.9 29.4583C26.3083 29.5167 26.775 29.5167 27.2417 29.5167C29.1667 29.5167 31.0333 29.1667 32.7833 28.525C34.8833 31.4417 38.5 33.3667 42.6417 33.3667C49.175 33.3667 54.4833 28.525 54.4833 22.5167C54.4833 16.5083 49.1167 11.6667 42.5833 11.6667Z" fill="#F8B602"/>
<path d="M15.1083 35.5833C6.99998 35.5833 0.466644 29.5167 0.466644 22.05C0.466644 15.4 5.71664 9.74167 12.7166 8.69167C15.4583 3.67501 21.1166 0.466675 27.2416 0.466675C34.1833 0.466675 40.3666 4.55001 42.6416 10.5583C49.7583 10.5583 55.5916 15.925 55.5916 22.575C55.5916 29.1667 49.7583 34.5917 42.6416 34.5917C38.6166 34.5917 34.825 32.8417 32.375 29.925C30.6833 30.45 28.9916 30.6833 27.2416 30.6833C26.95 30.6833 26.6583 30.6833 26.425 30.6833C23.625 33.775 19.5416 35.5833 15.1083 35.5833ZM27.2416 2.74167C21.7583 2.74167 16.7416 5.71668 14.4666 10.2667L14.175 10.85L13.5333 10.9083C7.40831 11.6083 2.74164 16.3917 2.74164 22.05C2.74164 28.2333 8.28331 33.3083 15.1083 33.3083C19.075 33.3083 22.6916 31.6167 25.025 28.7L25.4333 28.2333L26.0166 28.2917C26.3666 28.2917 26.775 28.35 27.2416 28.35C28.9916 28.35 30.7416 28.0583 32.375 27.475L33.1916 27.1833L33.7166 27.8833C35.7 30.625 39.025 32.2583 42.6416 32.2583C48.5333 32.2583 53.3166 27.8833 53.3166 22.575C53.3166 17.2667 48.475 12.8333 42.5833 12.8333C42.4083 12.8333 42.2333 12.8333 42.0583 12.8333L41.0083 12.8917L40.7166 12.0167C39.025 6.59168 33.4833 2.74167 27.2416 2.74167Z" fill="#2E2E2E"/>
<path d="M42.35 55.5333H13.65L7.9917 31.4417L10.0334 32.3167C11.6667 32.9583 13.3584 33.3083 15.1084 33.3083C19.075 33.3083 22.6917 31.6167 25.025 28.7L25.4334 28.2333L26.0167 28.2917C26.3667 28.2917 26.775 28.35 27.2417 28.35C28.9917 28.35 30.7417 28.0583 32.375 27.475L33.1917 27.1833L33.7167 27.8833C35.7 30.625 39.025 32.2583 42.6417 32.2583C43.8667 32.2583 45.0917 32.0833 46.2584 31.675L48.1834 31.0333L42.35 55.5333ZM15.4584 53.2583H40.6L45.0917 34.3C44.275 34.4167 43.4584 34.5333 42.6417 34.5333C38.6167 34.5333 34.825 32.7833 32.375 29.8667C30.6834 30.3917 28.9917 30.625 27.2417 30.625C26.95 30.625 26.6584 30.625 26.425 30.625C23.625 33.775 19.5417 35.5833 15.1084 35.5833C13.7667 35.5833 12.425 35.4083 11.2 35.1167L15.4584 53.2583Z" fill="#2E2E2E"/>
<path d="M23.5667 39.4333H21.2917V47.075H23.5667V39.4333Z" fill="#2E2E2E"/>
<path d="M29.225 39.4333H26.95V47.075H29.225V39.4333Z" fill="#2E2E2E"/>
<path d="M34.825 39.4333H32.55V47.075H34.825V39.4333Z" fill="#2E2E2E"/>
<path d="M13.5619 27.84L11.7328 26.1235L10.176 27.7825L12.0051 29.4989L13.5619 27.84Z" fill="#2E2E2E"/>
<path d="M15.3772 17.6127L13.5481 15.8963L11.9913 17.5552L13.8204 19.2717L15.3772 17.6127Z" fill="#2E2E2E"/>
<path d="M44.6505 18.4808L42.8216 16.764L41.2646 18.4227L43.0934 20.1395L44.6505 18.4808Z" fill="#2E2E2E"/>
<path d="M35.3825 20.7482L33.5535 19.0317L31.9967 20.6906L33.8257 22.4071L35.3825 20.7482Z" fill="#2E2E2E"/>
<path d="M47.3567 26.9415L45.5277 25.225L43.9709 26.884L45.8 28.6004L47.3567 26.9415Z" fill="#2E2E2E"/>
<path d="M24.1422 22.4562L22.3131 20.7397L20.7563 22.3987L22.5854 24.1151L24.1422 22.4562Z" fill="#2E2E2E"/>
<path d="M25.8272 12.4652L23.9982 10.7487L22.4414 12.4076L24.2704 14.1241L25.8272 12.4652Z" fill="#2E2E2E"/>
<path d="M34.4964 9.69413L32.6673 7.97766L31.1105 9.63658L32.9396 11.353L34.4964 9.69413Z" fill="#2E2E2E"/>
</g>
<defs>
<clipPath id="clip0_0_81">
<rect width="56" height="56" fill="white"/>
</clipPath>
</defs>
</svg>
