<svg width="56" height="56" viewBox="0 0 56 56" fill="none" xmlns="http://www.w3.org/2000/svg">
<path d="M55.7084 24.9083H0.291687V23.7417C0.291687 13.2417 12.1334 1.45834 28 1.45834C43.8667 1.45834 55.7084 13.2417 55.7084 23.7417V24.9083ZM2.68335 22.575H53.375C52.5 13.475 41.9417 3.73334 28 3.73334C14.0584 3.73334 3.50002 13.475 2.68335 22.575Z" fill="#2E2E2E"/>
<path d="M9.09998 17.9667C12.3666 12.8333 19.6 8.39999 28 8.39999C36.4 8.39999 43.575 12.8333 46.9 17.9667H9.09998ZM52.325 53.375H3.67498C2.44998 53.375 1.45831 52.3833 1.45831 51.1583V43.6917H54.5416V51.1583C54.5416 52.3833 53.55 53.375 52.325 53.375Z" fill="#A6C44A"/>
<path d="M52.325 54.5417H3.67502C1.80835 54.5417 0.291687 53.025 0.291687 51.1583V42.5833H55.7084V51.2167C55.7084 53.025 54.1917 54.5417 52.325 54.5417ZM2.62502 44.8583V51.1583C2.62502 51.7417 3.09169 52.2083 3.67502 52.2083H52.3834C52.9667 52.2083 53.4334 51.7417 53.4334 51.1583V44.8583H2.62502Z" fill="#2E2E2E"/>
<path d="M49.525 38.675H6.47498C3.67498 38.675 1.45831 36.4 1.45831 33.6583C1.45831 30.8583 3.73331 28.6417 6.47498 28.6417H49.525C52.325 28.6417 54.5416 30.9167 54.5416 33.6583C54.5416 36.4583 52.325 38.675 49.525 38.675Z" fill="#F8B602"/>
<path d="M49.525 39.8417H6.47502C3.03335 39.8417 0.291687 37.0417 0.291687 33.6583C0.291687 30.275 3.09169 27.475 6.47502 27.475H49.525C52.9667 27.475 55.7084 30.275 55.7084 33.6583C55.7084 37.0417 52.9084 39.8417 49.525 39.8417ZM6.47502 29.75C4.31669 29.75 2.56669 31.5 2.56669 33.6583C2.56669 35.8167 4.31669 37.5667 6.47502 37.5667H49.525C51.6834 37.5667 53.4334 35.8167 53.4334 33.6583C53.4334 31.5 51.6834 29.75 49.525 29.75H6.47502Z" fill="#F8B602"/>
<path d="M30.8 35.8167C29.6916 35.8167 28.7 35.4083 27.7666 35.0583C27.0083 34.7667 26.3083 34.475 25.6666 34.475C24.9083 34.4167 24.0333 34.7083 23.1583 34.9417C21.8166 35.35 20.3 35.8167 18.7833 35.2917C18.3166 35.1167 17.9083 34.8833 17.5583 34.7083C17.325 34.5917 17.0916 34.4167 16.8583 34.3583C15.75 33.8917 14.4083 34.1833 12.95 34.5333L12.5416 34.65C10.85 35 8.39996 35.35 6.64996 33.8333L8.16663 32.0833C8.92496 32.725 10.15 32.8417 12.075 32.4333L12.4833 32.3167C14.1166 31.9667 15.9833 31.5583 17.7916 32.2583C18.1416 32.4333 18.4333 32.6083 18.7833 32.725C19.075 32.9 19.3666 33.075 19.6 33.1333C20.4166 33.425 21.4083 33.1333 22.575 32.7833C23.625 32.4917 24.675 32.1417 25.9 32.2C26.95 32.2583 27.825 32.6083 28.7 32.9583C29.6333 33.3083 30.5083 33.6583 31.2666 33.5417C31.5583 33.4833 31.9083 33.3667 32.3166 33.1917C32.4916 33.1333 32.6083 33.075 32.7833 33.0167C34.5333 32.3167 36.575 32.1417 38.4416 32.55C38.7333 32.6083 39.0833 32.6667 39.375 32.7833C39.9583 32.9583 40.5416 33.075 41.0666 33.075C41.825 33.075 42.6416 32.725 43.4583 32.4333C43.8083 32.3167 44.1583 32.1417 44.5083 32.025C46.4916 31.325 48.2416 31.5 49.4083 32.4917L47.8916 34.2417C47.1333 33.6 45.7916 34.0083 45.2083 34.1833C44.9166 34.3 44.5666 34.4167 44.275 34.5333C43.2833 34.9417 42.2333 35.35 41.0083 35.35C41.0083 35.35 41.0083 35.35 40.95 35.35C40.1333 35.35 39.375 35.175 38.675 35C38.3833 34.9417 38.15 34.8833 37.8583 34.825C36.4 34.5333 34.8833 34.65 33.5416 35.175C33.425 35.2333 33.25 35.2917 33.1333 35.35C32.6666 35.525 32.2 35.7583 31.6166 35.8167C31.325 35.7583 31.0916 35.8167 30.8 35.8167Z" fill="#2E2E2E"/>
<path d="M9.11769 18.5613L7.76434 16.6605L6.00614 17.9123L7.35949 19.8131L9.11769 18.5613Z" fill="#2E2E2E"/>
<path d="M40.0945 11.3803L38.7409 9.47974L36.9829 10.7318L38.3365 12.6324L40.0945 11.3803Z" fill="#2E2E2E"/>
<path d="M34.5034 9.038L33.1501 7.13724L31.3919 8.38908L32.7452 10.2898L34.5034 9.038Z" fill="#2E2E2E"/>
<path d="M13.4828 14.1626L11.9265 12.4241L10.8834 13.3578L12.4397 15.0964L13.4828 14.1626Z" fill="#2E2E2E"/>
<path d="M21.0213 10.4073L20.1235 8.25363L18.4544 8.94947L19.3522 11.1031L21.0213 10.4073Z" fill="#2E2E2E"/>
<path d="M15.4572 19.5792L14.4672 17.4663L13.2523 18.0355L14.2423 20.1484L15.4572 19.5792Z" fill="#2E2E2E"/>
<path d="M26.6583 9.21667L25.2 7.40834C25.9 6.825 26.775 6.41667 27.65 6.24167L28.175 8.45834C27.5916 8.63334 27.0666 8.86667 26.6583 9.21667ZM17.7916 16.0417L17.2083 13.825C17.7333 13.7083 18.2583 13.475 18.725 13.2417L19.775 15.2833C19.1333 15.575 18.4916 15.8083 17.7916 16.0417Z" fill="#2E2E2E"/>
<path d="M30.8663 19.1824L30.1247 16.9701L28.1889 17.6189L28.9305 19.8313L30.8663 19.1824Z" fill="#2E2E2E"/>
<path d="M42.6121 19.9088L41.8705 17.6964L39.9347 18.3453L40.6763 20.5577L42.6121 19.9088Z" fill="#2E2E2E"/>
<path d="M35.6417 20.3583L34.7083 18.2583C35.2917 18.025 35.875 17.7917 36.4583 17.675L36.925 19.95C36.4583 20.0667 35.9917 20.1833 35.6417 20.3583ZM32.6667 15.8667L31.7333 13.7667C32.3167 13.5333 32.9 13.3583 33.4833 13.1833L33.95 15.4583C33.4833 15.5167 33.075 15.6917 32.6667 15.8667Z" fill="#2E2E2E"/>
<path d="M26.931 14.3917L26.187 12.1802L24.86 12.6267L25.6041 14.8382L26.931 14.3917Z" fill="#2E2E2E"/>
<path d="M16.0246 11.5402L15.2795 9.32901L13.9528 9.77606L14.6979 11.9872L16.0246 11.5402Z" fill="#2E2E2E"/>
<path d="M24.0144 20.0081L23.2693 17.7969L21.9426 18.244L22.6877 20.4551L24.0144 20.0081Z" fill="#2E2E2E"/>
<path d="M48.1248 18.256L47.3807 16.0445L46.0538 16.4909L46.7979 18.7025L48.1248 18.256Z" fill="#2E2E2E"/>
<path d="M43.9296 15.7154L43.1855 13.5039L41.8586 13.9503L42.6027 16.1618L43.9296 15.7154Z" fill="#2E2E2E"/>
</svg>
