<svg width="56" height="56" viewBox="0 0 56 56" fill="none" xmlns="http://www.w3.org/2000/svg">
<path d="M14.4083 55.125C9.97497 55.125 5.54164 53.55 2.79997 49.9917C0.408302 46.9 -0.291698 42.7583 0.699968 38.2667C1.6333 34.1833 3.96663 30.3333 6.99997 28.0583C11.9583 24.2667 35.0583 12.7167 41.1833 20.7083C43.8083 24.2083 42.525 30.1 37.45 37.7417C33.4833 43.6917 28.1166 49.4083 25.0833 51.6833C22.225 53.9 18.3166 55.125 14.4083 55.125ZM34.0083 20.1833C26.075 20.1833 12.8916 26.4833 8.39997 29.8667C5.8333 31.85 3.79164 35.175 2.97497 38.7333C2.09997 42.525 2.74164 46.025 4.66664 48.5917C8.92497 54.1334 18.4916 53.8417 23.6833 49.9333C26.6 47.7167 31.85 42.0583 35.525 36.5167C39.9583 29.8083 41.3 24.7333 39.3166 22.1083C38.2666 20.7667 36.3416 20.1833 34.0083 20.1833Z" fill="#2E2E2E"/>
<path d="M14.4666 49.35C11.375 49.35 8.80831 48.3 7.40831 46.4917C6.12498 44.8 5.71664 42.2333 6.35831 39.55C6.94164 36.75 8.51664 34.125 10.5 32.6667C14.6416 29.5167 27.0666 23.6833 34.0083 23.6833C35.8166 23.6833 36.5166 24.0917 36.6333 24.2083C36.9833 24.6167 37.275 27.65 32.6666 34.5917C28.8166 40.3083 23.7416 45.5 21.525 47.1917C19.775 48.5333 17.0916 49.35 14.4666 49.35Z" fill="#F8B602"/>
<path d="M53.7249 16.3333C53.2583 15.6917 52.6749 15.225 52.0333 14.875C50.8083 14.2333 49.8749 13.0667 49.6416 11.725C49.4666 11.025 49.1749 10.325 48.7083 9.74165C47.2499 7.93332 44.2749 7.52499 42.3499 8.86665C40.1916 10.3833 39.7249 13.4167 41.2999 15.5167C41.7083 16.0417 41.6499 16.8 41.1249 17.15L37.8583 19.6583C38.7916 20.0667 39.6083 20.5917 40.1916 21.4083C40.7749 22.1666 41.1249 23.1 41.2416 24.0916L44.5083 21.5833C45.0333 21.175 45.7333 21.2917 46.1416 21.8167C47.7749 23.9166 50.8083 24.2666 52.8499 22.575C54.7166 21.175 55.0666 18.2 53.7249 16.3333Z" fill="#A6C44A"/>
<path d="M40.3667 26.25L40.1334 24.2667C40.0167 23.3917 39.7834 22.6917 39.3167 22.1083C38.85 21.525 38.2667 21.0583 37.45 20.7667L35.5834 20.0083L40.4834 16.275L40.425 16.2167C39.4334 14.9333 39.025 13.3583 39.3167 11.7833C39.55 10.2083 40.425 8.80832 41.7084 7.87499C44.1 6.18332 47.7167 6.64999 49.5834 8.98332C50.1667 9.74166 50.575 10.5583 50.75 11.4333C50.9834 12.4833 51.625 13.3583 52.5584 13.825C53.375 14.2333 54.075 14.875 54.6584 15.6333C56.4084 18.025 55.8834 21.6417 53.6084 23.5083C52.3834 24.5583 50.8084 24.9667 49.2334 24.7917C47.6584 24.6167 46.2584 23.8 45.2667 22.5167L45.2084 22.4583L40.3667 26.25ZM45.2084 20.2417C45.325 20.2417 45.4417 20.2417 45.5 20.2417C46.1417 20.3 46.6667 20.65 47.075 21.175C47.6584 21.9333 48.5334 22.4583 49.4667 22.575C50.4584 22.6917 51.3917 22.4 52.15 21.7583C53.4917 20.65 53.7834 18.375 52.7917 16.975C52.4417 16.5083 52.0334 16.1583 51.5667 15.8667C49.9917 15.05 48.8834 13.65 48.5334 11.9C48.4167 11.375 48.1834 10.85 47.8334 10.3833C46.725 9.04166 44.45 8.74999 43.05 9.74166C42.2334 10.325 41.7084 11.1417 41.5917 12.075C41.4167 13.0083 41.7084 14 42.2917 14.7583C42.7 15.2833 42.875 15.8667 42.7584 16.5083C42.7 17.0917 42.35 17.675 41.8834 18.025L40.0167 19.4833C40.4834 19.8333 40.8334 20.1833 41.1834 20.65C41.5334 21.1167 41.7667 21.5833 42 22.1083L43.8667 20.65C44.275 20.4167 44.7417 20.2417 45.2084 20.2417Z" fill="#2E2E2E"/>
<path d="M7.90397 36.6416L6.22736 36.4164L5.91674 38.729L7.59335 38.9542L7.90397 36.6416Z" fill="#2E2E2E"/>
<path d="M20.3849 36.9901L18.7083 36.7649L18.3977 39.0775L20.0743 39.3027L20.3849 36.9901Z" fill="#2E2E2E"/>
<path d="M31.7651 34.3619L30.0884 34.1367L29.7778 36.4493L31.4544 36.6745L31.7651 34.3619Z" fill="#2E2E2E"/>
<path d="M14.902 47.5451L13.2254 47.3199L12.9148 49.6325L14.5914 49.8577L14.902 47.5451Z" fill="#2E2E2E"/>
<path d="M18.9258 30.3381L17.2491 30.1129L16.9385 32.4254L18.6151 32.6506L18.9258 30.3381Z" fill="#2E2E2E"/>
<path d="M30.7143 24.7949L29.0377 24.5697L28.727 26.8823L30.4037 27.1075L30.7143 24.7949Z" fill="#2E2E2E"/>
<path d="M15.6333 0.875H13.3V8.10833H15.6333V0.875Z" fill="#2E2E2E"/>
<path d="M8.75002 10.9667H6.41669V18.2H8.75002V10.9667Z" fill="#2E2E2E"/>
<path d="M22.575 8.69168H20.2417V15.925H22.575V8.69168Z" fill="#2E2E2E"/>
</svg>
