<svg width="56" height="56" viewBox="0 0 56 56" fill="none" xmlns="http://www.w3.org/2000/svg">
<g clip-path="url(#clip0_0_126)">
<path d="M11.4917 49.4667C10.9083 48.9417 10.325 48.3 9.79999 47.7167L11.55 46.2C12.0167 46.725 12.5417 47.3083 13.0667 47.775L11.4917 49.4667ZM7.64166 44.8C7.23333 44.1 6.82499 43.4 6.41666 42.7L8.45833 41.65C8.80833 42.2917 9.15833 42.9333 9.56666 43.575L7.64166 44.8ZM5.07499 39.3167C4.84166 38.5583 4.60833 37.7417 4.43333 36.9833L6.70833 36.5167C6.88333 37.2167 7.05833 37.9167 7.29166 38.6167L5.07499 39.3167ZM3.96666 33.3667C3.90833 32.8417 3.90833 32.375 3.90833 31.85C3.90833 31.5583 3.90833 31.2667 3.90833 30.9167L6.24166 31.0333C6.24166 31.325 6.24166 31.5583 6.24166 31.85C6.24166 32.3167 6.24166 32.7833 6.29999 33.1917L3.96666 33.3667ZM6.59166 27.7667L4.31666 27.3583C4.49166 26.5417 4.66666 25.7833 4.89999 25.025L7.11666 25.6667C6.88333 26.3667 6.70833 27.0667 6.59166 27.7667ZM8.28333 22.575L6.18333 21.5833C6.53333 20.8833 6.88333 20.125 7.34999 19.425L9.33333 20.5917C8.92499 21.2917 8.57499 21.9333 8.28333 22.575ZM45.3833 48.5917L43.75 46.9583C44.275 46.4333 44.7417 45.85 45.2083 45.325L47.0167 46.725C46.4917 47.3667 45.9667 48.0083 45.3833 48.5917ZM49 43.6917L47.0167 42.5833C47.3667 41.9417 47.7167 41.3 48.0083 40.6L50.1083 41.5333C49.7583 42.2917 49.4083 42.9917 49 43.6917ZM51.275 38.15L49.0583 37.5667C49.2333 36.8667 49.4083 36.1667 49.525 35.4083L51.8 35.7583C51.6833 36.5167 51.5083 37.3333 51.275 38.15ZM52.0917 32.1417H49.7583V31.9083C49.7583 31.2667 49.7 30.5667 49.6417 29.925L51.9167 29.6917C51.975 30.3917 52.0333 31.15 52.0333 31.85L52.0917 32.1417ZM49.175 26.6583C49 25.9583 48.7667 25.2583 48.5333 24.5583L50.6917 23.8C50.9833 24.5583 51.2167 25.3167 51.3917 26.1333L49.175 26.6583ZM47.1917 21.5833C46.8417 20.9417 46.4917 20.3 46.0833 19.7167L48.0083 18.4333C48.475 19.075 48.8833 19.775 49.2917 20.5333L47.1917 21.5833Z" fill="#2E2E2E"/>
<path d="M12.8917 1.45834H43.1083L47.0167 9.21668H8.98334L12.8917 1.45834Z" fill="#A6C44A"/>
<path d="M48.9417 10.3833H7.1167L12.1917 0.291656H43.8667L48.9417 10.3833ZM10.85 8.04999H45.2084L42.4667 2.56666H13.65L10.85 8.04999Z" fill="#2E2E2E"/>
<path d="M16.8 54.5417H39.2L40.6 43.5167H15.4L16.8 54.5417Z" fill="white"/>
<path d="M40.25 55.7083H15.75L14.1167 42.35H41.9417L40.25 55.7083ZM17.7917 53.375H38.2084L39.3167 44.625H16.6834L17.7917 53.375Z" fill="#2E2E2E"/>
<path d="M44.8583 9.21667H11.1417L12.4833 20.2417H43.5167L44.8583 9.21667Z" fill="white"/>
<path d="M44.5083 21.4084H11.4917L9.85834 8.05002H46.2L44.5083 21.4084ZM13.5333 19.075H42.4667L43.575 10.325H12.425L13.5333 19.075Z" fill="#2E2E2E"/>
<path d="M12.4833 20.2417L15.4 43.5167H40.6L43.5167 20.2417H12.4833Z" fill="#F8B602"/>
<path d="M41.5917 44.6833H14.4083L11.2 19.1333H44.8L41.5917 44.6833ZM16.3917 42.35H39.55L42.175 21.4083H13.825L16.3917 42.35Z" fill="#F8B602"/>
<path d="M28.0001 39.8416C31.5117 39.8416 34.3584 36.2898 34.3584 31.9083C34.3584 27.5269 31.5117 23.975 28.0001 23.975C24.4884 23.975 21.6417 27.5269 21.6417 31.9083C21.6417 36.2898 24.4884 39.8416 28.0001 39.8416Z" fill="white"/>
<path d="M28 40.95C23.8584 40.95 20.475 36.8667 20.475 31.85C20.475 26.8333 23.8584 22.8083 28 22.8083C32.1417 22.8083 35.525 26.8917 35.525 31.9083C35.525 36.925 32.1417 40.95 28 40.95ZM28 25.0833C25.1417 25.0833 22.8084 28.1167 22.8084 31.85C22.8084 35.5833 25.1417 38.6167 28 38.6167C30.8584 38.6167 33.1917 35.5833 33.1917 31.85C33.1917 28.1167 30.8584 25.0833 28 25.0833Z" fill="#2E2E2E"/>
<path d="M27.475 40.075C26.8333 38.4417 26.775 36.6917 27.2416 35C27.3583 34.5917 27.5333 34.1833 27.65 33.8333C27.825 33.3083 28 32.8417 28.1166 32.4333C28.2333 31.675 28.1166 30.8 27.7666 29.925C27.4166 29.05 26.8333 28.175 26.25 27.3583C25.9 26.8917 25.6083 26.3667 25.375 25.7833C25.0833 24.9667 25.025 24.15 25.3166 23.45L27.475 24.325C27.4166 24.5 27.4166 24.7333 27.5333 24.9667C27.65 25.3167 27.8833 25.6667 28.175 26.0167C28.8166 26.95 29.4583 27.9417 29.925 29.05C30.45 30.3333 30.625 31.675 30.45 32.8417C30.3333 33.5417 30.1 34.125 29.8666 34.7083C29.75 35.0583 29.6333 35.35 29.5166 35.7C29.1666 36.8667 29.225 38.15 29.6916 39.2583L27.475 40.075Z" fill="#2E2E2E"/>
</g>
<defs>
<clipPath id="clip0_0_126">
<rect width="56" height="56" fill="white"/>
</clipPath>
</defs>
</svg>
