<svg width="56" height="56" viewBox="0 0 56 56" fill="none" xmlns="http://www.w3.org/2000/svg">
<g clip-path="url(#clip0_0_161)">
<path d="M31.7334 48.825C22.4001 52.9083 11.4917 48.65 7.40839 39.3167C3.32505 29.9833 7.58339 19.075 16.9167 14.9917C21.5834 12.95 26.6584 13.0083 31.0334 14.7L32.9584 9.74167C27.3001 7.525 20.7667 7.46667 14.7584 10.0917C2.74172 15.3417 -2.74161 29.4 2.50839 41.4167C7.75839 53.4333 21.8167 58.9167 33.8334 53.6667C45.8501 48.4167 51.3334 34.3583 46.0834 22.3417L41.2417 24.5C45.3251 33.8333 41.0667 44.7417 31.7334 48.825Z" fill="#F8B602"/>
<path d="M38.85 6.76665C43.2833 8.45832 47.0166 11.9 49.0583 16.5667L53.9 14.4083C51.275 8.39999 46.4916 4.02499 40.775 1.80832L38.85 6.76665Z" fill="#A6C44A"/>
<path d="M48.475 18.0833L48.0084 17.0333C46.1417 12.775 42.7584 9.56666 38.4417 7.87499L37.3334 7.40832L40.1334 0.291656L41.2417 0.69999C47.425 3.14999 52.325 7.81666 55.0084 13.9417L55.475 14.9917L48.475 18.0833ZM40.3667 6.12499C44.3917 7.99166 47.6 11.0833 49.6417 15.05L52.3834 13.8833C50.05 9.21666 46.2584 5.54166 41.475 3.38332L40.3667 6.12499Z" fill="#2E2E2E"/>
<path d="M49.0584 16.5667C47.0167 11.9 43.2834 8.51666 38.8501 6.76666L32.1417 23.975L49.0584 16.5667Z" fill="#F8B602"/>
<path d="M30.0416 26.1917L38.2083 5.25L39.3166 5.65833C44.2166 7.58333 48.0666 11.2583 50.1666 16.1L50.6333 17.15L30.0416 26.1917ZM39.4916 8.28333L34.2416 21.7583L47.4833 15.9833C45.7333 12.6 42.9333 9.91667 39.4916 8.28333Z" fill="#2E2E2E"/>
<path d="M24.325 51.5667C16.7417 51.5667 9.50833 47.1917 6.3 39.7833C1.925 29.8667 6.475 18.2583 16.3917 13.8833C21.175 11.7833 26.5417 11.6667 31.4417 13.5917L32.55 14L26.425 29.6917L41.825 22.925L42.2917 23.975C44.3917 28.7583 44.5083 34.125 42.5833 39.025C40.6583 43.925 36.9833 47.775 32.1417 49.875C29.6333 51.0417 27.0083 51.5667 24.325 51.5667ZM8.45833 38.85C12.3083 47.6 22.5167 51.5667 31.2667 47.775C35.525 45.9083 38.7333 42.525 40.425 38.2083C41.9417 34.2417 42 29.9833 40.6 26.075L22.225 34.125L29.5167 15.4C25.55 14.1167 21.2333 14.35 17.3833 16.0417C8.63333 19.8917 4.66667 30.1 8.45833 38.85Z" fill="#2E2E2E"/>
<path d="M17.9084 44.5083C19.5192 44.5083 20.825 43.2025 20.825 41.5917C20.825 39.9809 19.5192 38.675 17.9084 38.675C16.2975 38.675 14.9917 39.9809 14.9917 41.5917C14.9917 43.2025 16.2975 44.5083 17.9084 44.5083Z" fill="#A6C44A"/>
<path d="M17.9084 45.675C16.3334 45.675 14.8167 44.7416 14.1167 43.225C13.65 42.2333 13.65 41.125 14.0584 40.075C14.4667 39.025 15.225 38.2666 16.2167 37.8C17.2084 37.3333 18.3167 37.3333 19.3667 37.7416C20.4167 38.15 21.175 38.9083 21.6417 39.9C22.1084 40.8916 22.1084 42 21.7 43.05C21.2917 44.1 20.5334 44.8583 19.5417 45.325C19.0167 45.5583 18.4334 45.675 17.9084 45.675ZM17.9084 39.7833C17.675 39.7833 17.4417 39.8416 17.2084 39.9583C16.8 40.1333 16.45 40.4833 16.275 40.95C16.1 41.4166 16.1 41.8833 16.275 42.2916C16.6834 43.1666 17.7334 43.575 18.6084 43.225C19.0167 43.05 19.3667 42.7 19.5417 42.2333C19.7167 41.7666 19.7167 41.3 19.5417 40.8916C19.3667 40.4833 19.0167 40.1333 18.55 39.9583C18.3167 39.8416 18.0834 39.7833 17.9084 39.7833Z" fill="#A6C44A"/>
<path d="M15.9833 26.1333C17.4008 26.1333 18.55 24.9842 18.55 23.5667C18.55 22.1491 17.4008 21 15.9833 21C14.5658 21 13.4166 22.1491 13.4166 23.5667C13.4166 24.9842 14.5658 26.1333 15.9833 26.1333Z" fill="#A6C44A"/>
<path d="M15.9833 27.3C15.5166 27.3 15.05 27.2417 14.6416 27.0667C13.7083 26.7167 13.0083 26.0167 12.6 25.0833C12.1916 24.15 12.1916 23.1583 12.5416 22.225C12.8916 21.2917 13.5916 20.5917 14.525 20.1833C16.3916 19.3667 18.6083 20.2417 19.425 22.1083C20.2416 23.975 19.3666 26.1917 17.5 27.0083C17.0333 27.1833 16.5083 27.3 15.9833 27.3ZM15.9833 22.225C15.8083 22.225 15.6333 22.2833 15.4583 22.3417C15.1083 22.5167 14.875 22.75 14.7 23.1C14.5833 23.45 14.5833 23.8 14.7 24.15C14.8166 24.5 15.1083 24.7333 15.4583 24.9083C15.8083 25.025 16.1583 25.025 16.5083 24.9083C17.2083 24.6167 17.5 23.8 17.2083 23.1C17.0333 22.5167 16.5083 22.225 15.9833 22.225Z" fill="#A6C44A"/>
<path d="M32.9584 43.8667C32.4917 43.8667 32.0834 43.8083 31.6167 43.6333C30.6834 43.2833 29.9834 42.5833 29.5751 41.7083L31.7334 40.775C31.8501 41.125 32.1417 41.3583 32.4334 41.475C32.7834 41.5917 33.1334 41.5917 33.4251 41.475C34.0667 41.1833 34.4167 40.425 34.1251 39.725L36.2834 38.7917C37.1001 40.6583 36.2251 42.8167 34.4167 43.6333C33.9501 43.8083 33.4834 43.8667 32.9584 43.8667ZM40.5417 17.6167C39.1417 17.6167 37.8001 16.8 37.1584 15.4L39.3167 14.4667C39.6084 15.1083 40.3667 15.4583 41.0667 15.1667C41.7084 14.875 42.0584 14.1167 41.7667 13.4167L43.9251 12.4833C44.7417 14.35 43.8667 16.5083 42.0584 17.325C41.5334 17.5583 41.0667 17.6167 40.5417 17.6167Z" fill="#2E2E2E"/>
<path d="M10.8684 33.4205L8.54578 33.1975L8.37855 34.9394L10.7011 35.1624L10.8684 33.4205Z" fill="#2E2E2E"/>
<path d="M13.5333 38.2083L11.2583 37.7417C11.375 37.1 11.6666 36.4583 12.075 35.9333L13.9416 37.3333C13.7083 37.625 13.5916 37.9167 13.5333 38.2083ZM16.45 33.075L14.525 31.7333C14.8166 31.2667 15.225 30.9167 15.6916 30.5667L17.0333 32.4917C16.8 32.6083 16.625 32.8417 16.45 33.075Z" fill="#2E2E2E"/>
<path d="M23.1208 26.8707L21.0125 25.8711L20.4877 26.978L22.5961 27.9776L23.1208 26.8707Z" fill="#2E2E2E"/>
<path d="M42.0447 10.9372L39.9349 9.94046L39.4116 11.0481L41.5214 12.0448L42.0447 10.9372Z" fill="#2E2E2E"/>
<path d="M26.0166 20.7667L23.6833 20.3583C23.8 19.775 24.0333 19.1917 24.3833 18.725L26.3083 20.0667C26.1333 20.2417 26.075 20.5333 26.0166 20.7667ZM21.7583 19.1917L19.4833 18.55C19.6583 17.9667 19.95 17.3833 20.4166 16.9167L22.1083 18.55C21.9916 18.725 21.8166 18.9583 21.7583 19.1917ZM9.44997 27.825C9.21664 27.1833 9.21664 26.4833 9.56664 25.8417L11.6666 26.95L9.44997 27.825Z" fill="#2E2E2E"/>
<path d="M23.6112 37.881L22.6758 35.7433L21.7673 36.1409L22.7027 38.2785L23.6112 37.881Z" fill="#2E2E2E"/>
<path d="M26.1502 42.4434L25.2126 40.3067L24.3046 40.7052L25.2421 42.8419L26.1502 42.4434Z" fill="#2E2E2E"/>
<path d="M24.9236 46.8403L24.4576 44.554L23.0287 44.8452L23.4946 47.1315L24.9236 46.8403Z" fill="#2E2E2E"/>
<path d="M31.3694 46.0832L30.115 44.1158L28.4918 45.1506L29.7462 47.1181L31.3694 46.0832Z" fill="#2E2E2E"/>
<path d="M26.775 37.8583C26.775 37.0417 27.125 36.2833 27.7667 35.8167L29.225 37.6833C29.1667 37.6833 29.1667 37.7417 29.1667 37.8L26.775 37.8583Z" fill="#2E2E2E"/>
<path d="M33.0205 32.3022L31.7057 30.3745L30.5009 31.1963L31.8158 33.1239L33.0205 32.3022Z" fill="#2E2E2E"/>
<path d="M34.0084 37.5667L33.3667 35.2917C33.5417 35.2333 33.775 35.1167 33.8917 35L35.4084 36.8083C35 37.1583 34.5334 37.3917 34.0084 37.5667Z" fill="#2E2E2E"/>
<path d="M39.4254 31.5582L37.7325 29.9524L36.4077 31.3489L38.1005 32.9548L39.4254 31.5582Z" fill="#2E2E2E"/>
<path d="M20.6928 33.45L18.6458 32.3302L18.2538 33.0466L20.3008 34.1665L20.6928 33.45Z" fill="#2E2E2E"/>
<path d="M38.612 18.5257L36.5654 17.405L36.1732 18.1213L38.2197 19.242L38.612 18.5257Z" fill="#2E2E2E"/>
</g>
<defs>
<clipPath id="clip0_0_161">
<rect width="56" height="56" fill="white"/>
</clipPath>
</defs>
</svg>
