<svg width="56" height="56" viewBox="0 0 56 56" fill="none" xmlns="http://www.w3.org/2000/svg">
<g clip-path="url(#clip0_0_194)">
<path d="M34.7083 36.575C30.2167 36.575 21.2333 32.3167 14.0583 25.1417C9.50833 20.5917 7.93333 15.575 7.875 12.0167L9.39167 9.56667L11.4917 7.99167C11.55 7.99167 11.6667 7.99167 11.725 7.99167C14.4667 7.99167 19.8333 8.80834 25.1417 14.0583C29.3417 18.2583 33.0167 23.6833 35.0583 28.5833C36.9833 33.3083 36.6917 35.875 36.225 36.2833C36.1667 36.3417 35.7 36.575 34.7083 36.575Z" fill="#F8B602"/>
<path d="M19.1916 27.8833C18.7833 27.8833 18.4916 27.7084 18.375 27.65C17.2666 27.0667 16.45 25.9583 15.9833 24.5583C15.6333 23.3917 15.6333 22.225 15.6333 21.175L17.9083 21.1167C17.9083 22.05 17.9666 23.0417 18.2 23.9167C18.3166 24.2667 18.4333 24.5583 18.6083 24.85C18.6666 24.6167 18.6666 24.15 19.0166 23.7417C19.5416 23.1 20.475 22.925 21.35 23.3917C21.4666 23.45 21.5833 23.5084 21.7 23.5667C21.7583 23.625 21.8166 23.625 21.875 23.6833C21.875 23.6833 21.875 23.6833 21.875 23.625C21.9333 23.45 21.9333 23.2167 21.875 22.8667C21.875 22.75 21.8166 22.6917 21.8166 22.575C21.7583 22.225 21.6416 21.875 21.6416 21.4667C21.6416 20.5917 22.1083 19.775 22.8666 19.4833C23.45 19.25 24.0333 19.3083 24.4416 19.425L23.975 17.7333C23.8583 17.325 23.975 16.9167 24.2666 16.625C24.2666 16.625 24.2666 16.625 24.325 16.5667C23.275 16.3917 22.1083 16.5083 21 16.625L20.7666 14.35C22.05 14.2333 23.5083 14.0583 24.9083 14.35C26.6583 14.7 28.0583 15.6333 28.8166 16.9167C28.9916 17.2083 28.9916 17.6167 28.875 17.9667C28.7 18.3167 28.4083 18.55 28.0583 18.6083C27.5916 18.6667 27.125 18.725 26.6583 18.725L26.7166 18.9C27.0083 19.95 26.8333 20.7667 26.25 21.2917C25.4916 21.9333 24.6166 21.7 24.15 21.5833C24.0916 21.5833 24.0333 21.5833 24.0333 21.525C24.0333 21.6417 24.0916 21.8167 24.15 21.9917C24.15 22.1083 24.2083 22.225 24.2083 22.3417C24.3833 23.1583 24.325 23.8584 24.0916 24.4417C23.6833 25.375 22.75 25.9583 21.8166 25.8417C21.4083 25.7833 21.1166 25.6667 20.8833 25.4917L20.7666 26.25C20.5916 27.5333 19.775 27.7667 19.4833 27.7667C19.3083 27.8833 19.25 27.8833 19.1916 27.8833Z" fill="#2E2E2E"/>
<path d="M15.2251 11.2C14.2917 12.1333 12.8334 12.1333 11.9001 11.2C10.9667 10.2667 10.9667 8.80832 11.9001 7.87499C12.8334 6.94165 14.2917 6.94165 15.2251 7.87499C16.1584 8.80832 16.1584 10.2667 15.2251 11.2Z" fill="#A6C44A"/>
<path d="M13.5333 13.0083C12.5999 13.0083 11.7249 12.6583 11.0833 11.9583C9.74161 10.6167 9.74161 8.40001 11.0833 7.00001C11.7249 6.35835 12.5999 5.95001 13.5333 5.95001C14.4666 5.95001 15.3416 6.30001 15.9833 7.00001C17.3249 8.34168 17.3249 10.5583 15.9833 11.9583C15.3416 12.6583 14.4666 13.0083 13.5333 13.0083ZM13.5333 8.28335C13.1833 8.28335 12.8916 8.40001 12.6583 8.63335C12.1916 9.10001 12.1916 9.91668 12.6583 10.3833C13.1249 10.85 13.9416 10.85 14.4083 10.3833C14.8749 9.91668 14.8749 9.10001 14.4083 8.63335C14.1749 8.40001 13.8833 8.28335 13.5333 8.28335Z" fill="#2E2E2E"/>
<path d="M34.7083 42.0583C28.0583 42.0583 17.7917 36.575 10.2083 28.9917C1.45833 20.2417 1.80833 10.675 3.20833 6.825L3.49999 5.95L5.83333 6.18333L5.54166 3.73333L6.29999 3.38333C10.675 1.575 20.7083 1.80833 28.9917 10.15C38.675 19.8333 45.5 34.7083 40.075 40.1333C38.85 41.3583 37.0417 42.0583 34.7083 42.0583ZM5.07499 8.4C4.02499 12.6 4.95833 20.475 11.7833 27.3583C18.8417 34.4167 28.7 39.725 34.7083 39.725C36.4 39.725 37.6833 39.3167 38.5583 38.4417C42.525 34.475 36.9833 21.2333 27.475 11.6667C20.3583 4.66666 12.1333 3.96666 7.99166 5.19166L8.39999 8.80833L5.07499 8.4Z" fill="#2E2E2E"/>
<path d="M40.95 35.1167C40.8917 36.8667 40.3667 38.325 39.3751 39.3167C38.3834 40.3083 36.925 40.8333 35.175 40.8917L38.6167 53.4917L53.4917 38.5L40.95 35.1167Z" fill="#A6C44A"/>
<path d="M37.975 55.65L33.6583 39.7833L35.0583 39.725C36.575 39.6667 37.7417 39.2583 38.5 38.4417C39.2583 37.6833 39.6667 36.5167 39.7833 35L39.8417 33.6L55.7083 37.9167L37.975 55.65ZM36.575 41.8833L39.1417 51.3333L51.3333 39.0833L41.8833 36.5167C41.5917 37.975 41.0083 39.1417 40.1333 40.075C39.2583 41.0083 38.0333 41.5917 36.575 41.8833Z" fill="#2E2E2E"/>
<path d="M26.425 52.4417C25.725 52.4417 25.025 52.4417 24.3833 52.3833L24.5583 50.1083C25.2 50.1667 25.8416 50.1667 26.425 50.1667C26.5416 50.1667 26.6 50.1667 26.7166 50.1667L26.775 52.4417C26.6583 52.4417 26.5416 52.4417 26.425 52.4417ZM30.275 52.15L29.925 49.9333C30.625 49.8167 31.325 49.7 32.025 49.525L32.55 51.7417C31.85 51.8583 31.0333 52.0333 30.275 52.15ZM20.8833 51.8583C20.125 51.6833 19.3666 51.5083 18.6083 51.275L19.3083 49.1167C20.0083 49.35 20.7083 49.525 21.4083 49.6417L20.8833 51.8583ZM15.2833 49.9917C14.5833 49.6417 13.8833 49.2917 13.1833 48.8833L14.35 46.9583C14.9916 47.3083 15.6333 47.6583 16.275 47.95L15.2833 49.9917ZM10.2666 46.8417C9.62496 46.375 9.04163 45.85 8.45829 45.2667L10.0333 43.6333C10.5583 44.1 11.0833 44.625 11.6666 45.0333L10.2666 46.8417ZM6.06663 42.7C5.59996 42.0583 5.07496 41.4167 4.66663 40.775L6.53329 39.55C6.94163 40.1333 7.34996 40.7167 7.81662 41.3L6.06663 42.7ZM2.91663 37.7417C2.56663 37.0417 2.27496 36.2833 1.98329 35.5833L4.08329 34.7667C4.31663 35.4667 4.60829 36.1083 4.95829 36.75L2.91663 37.7417ZM0.933293 32.1417C0.758293 31.3833 0.641626 30.5667 0.524959 29.8083L2.74163 29.5167C2.85829 30.2167 2.97496 30.9167 3.14996 31.6167L0.933293 32.1417ZM2.56663 26.3083H0.291626C0.291626 25.55 0.349959 24.7333 0.408293 23.975L2.68329 24.2083C2.62496 24.85 2.56663 25.55 2.56663 26.3083Z" fill="#2E2E2E"/>
<path d="M52.0333 30.7417L49.8166 30.3917C49.9333 29.6917 50.0499 28.9917 50.1083 28.2333L52.3833 28.4083C52.2666 29.1667 52.2083 29.9833 52.0333 30.7417ZM50.1083 24.9667C50.0499 24.2667 49.9916 23.5083 49.8749 22.8083L52.0916 22.4583C52.2083 23.2167 52.2666 24.0333 52.3249 24.7917L50.1083 24.9667ZM49.1749 19.6583C48.9999 18.9583 48.7666 18.2583 48.4749 17.6167L50.5749 16.8C50.8666 17.5583 51.0999 18.2583 51.3333 19.0167L49.1749 19.6583ZM47.1333 14.7C46.7833 14.0583 46.3749 13.475 45.9666 12.8917L47.8333 11.6083C48.2999 12.25 48.7083 12.95 49.0583 13.5917L47.1333 14.7ZM43.9833 10.325C43.5166 9.79999 42.9916 9.27499 42.4666 8.80832L43.9833 7.11666C44.5666 7.64166 45.1499 8.22499 45.6749 8.80832L43.9833 10.325ZM39.8999 6.76666C39.3166 6.35832 38.6749 5.94999 38.0916 5.59999L39.1999 3.61666C39.8999 4.02499 40.5416 4.43332 41.1833 4.89999L39.8999 6.76666ZM35.1749 4.25832C34.4749 3.96666 33.8333 3.73332 33.1333 3.49999L33.7749 1.34166C34.5333 1.57499 35.2916 1.80832 35.9916 2.09999L35.1749 4.25832ZM22.4583 2.85832L22.1083 0.641656C22.8666 0.52499 23.6833 0.408323 24.4416 0.34999L24.6166 2.62499C23.8583 2.68332 23.1583 2.74166 22.4583 2.85832ZM29.9833 2.79999C29.2833 2.68332 28.5249 2.62499 27.8249 2.56666L27.9416 0.291656C28.6999 0.34999 29.5166 0.408323 30.2749 0.52499L29.9833 2.79999Z" fill="#2E2E2E"/>
</g>
<defs>
<clipPath id="clip0_0_194">
<rect width="56" height="56" fill="white"/>
</clipPath>
</defs>
</svg>
