<svg width="24" height="24" viewBox="0 0 24 24" fill="none" xmlns="http://www.w3.org/2000/svg">
<path d="M23.4566 7.66892C23.1566 6.26267 22.6691 5.10017 21.8066 4.18142C20.5878 2.83142 18.9941 2.17517 17.1003 2.17517H16.8566C14.8503 2.23142 13.2003 3.03767 12.0378 4.50017C11.6066 4.01267 11.0628 3.52517 10.4441 3.15017C9.22533 2.41892 7.81908 2.11892 6.22533 2.23142C4.46283 2.41892 3.05658 3.20642 2.00658 4.50017C0.900333 5.96267 0.356583 7.61267 0.412833 9.31892C0.469083 10.9127 0.956583 12.3752 1.87533 13.7814C2.90658 15.3752 4.20033 16.5939 5.36283 17.5689C7.01283 19.0314 8.90658 20.3252 11.2878 21.6564C11.5316 21.7877 11.7191 21.8439 11.9628 21.8439C12.2066 21.8439 12.3941 21.7877 12.6378 21.6564C14.7191 20.4939 16.5378 19.2752 18.1878 17.8689C19.8941 16.4627 21.1128 15.1127 22.0878 13.6502C23.4003 11.7564 23.8128 9.80642 23.4566 7.66892Z" fill="#EB5757"/>
</svg>
